<svg width="24" height="24" viewBox="0 0 24 24" fill="none" xmlns="http://www.w3.org/2000/svg">
    <g clip-path="url(#clip0_1032_93715)">
        <path d="M9.54198 16.1724L12.8565 6.2287C12.9793 5.86031 12.7802 5.46211 12.4118 5.3393C12.0435 5.21653 11.6452 5.41561 11.5224 5.784L8.20787 15.7277C8.08511 16.0961 8.28419 16.4943 8.65258 16.6171C8.72631 16.6417 8.80131 16.6534 8.875 16.6534C9.16937 16.6534 9.44373 16.4671 9.54198 16.1724ZM14.5097 13.0876C15.6728 13.0876 16.619 12.1414 16.619 10.9783C16.619 9.81516 15.6728 8.86889 14.5097 8.86889C13.3465 8.86889 12.4003 9.81516 12.4003 10.9783C12.4003 12.1414 13.3465 13.0876 14.5097 13.0876ZM14.5097 10.2751C14.8974 10.2751 15.2128 10.5906 15.2128 10.9783C15.2128 11.366 14.8974 11.6814 14.5097 11.6814C14.122 11.6814 13.8065 11.366 13.8065 10.9783C13.8065 10.5906 14.122 10.2751 14.5097 10.2751ZM6.55469 8.86889C5.39158 8.86889 4.44531 9.81516 4.44531 10.9783C4.44531 12.1414 5.39158 13.0876 6.55469 13.0876C7.7178 13.0876 8.66406 12.1414 8.66406 10.9783C8.66406 9.81516 7.71784 8.86889 6.55469 8.86889ZM6.55469 11.6814C6.16698 11.6814 5.85156 11.366 5.85156 10.9783C5.85156 10.5906 6.16698 10.2751 6.55469 10.2751C6.94239 10.2751 7.25781 10.5906 7.25781 10.9783C7.25781 11.366 6.94244 11.6814 6.55469 11.6814Z"
              fill="#94A3B8"/>
        <path d="M23.8594 8.71898L21.4075 5.44978L21.5031 4.78026C21.5186 4.6722 21.5086 4.56203 21.4741 4.45848C21.4396 4.35492 21.3814 4.26082 21.3043 4.18364L19.8127 2.69208L21.3042 1.20051C21.5788 0.925967 21.5788 0.480748 21.3042 0.206155C21.0297 -0.0683923 20.5844 -0.0683923 20.3098 0.206155L18.8183 1.69772L17.3268 0.206155C17.2496 0.129014 17.1555 0.0708881 17.0519 0.03637C16.9484 0.00185192 16.8382 -0.00811256 16.7301 0.00726396L9.76954 1.00162C9.61893 1.02315 9.47937 1.09293 9.3718 1.20051L0.753926 9.81839C-0.251309 10.8236 -0.251309 12.4592 0.753926 13.4644L8.04594 20.7565C8.19186 20.9023 8.3548 21.0301 8.53124 21.137V21.4221C8.53124 22.8437 9.68779 24.0002 11.1094 24.0002H21.4219C22.8434 24.0002 24 22.8437 24 21.4221V9.14086C24 8.98875 23.9506 8.84067 23.8594 8.71898ZM1.74829 12.4701C1.29135 12.0131 1.29135 11.2697 1.74829 10.8127L10.2004 2.36062L16.5809 1.44914L17.8239 2.69212L16.8296 3.68648L16.3324 3.18928C16.0578 2.91473 15.6126 2.91473 15.338 3.18928C15.0634 3.46383 15.0634 3.90905 15.338 4.18364L17.3268 6.1724C17.4641 6.3097 17.644 6.37837 17.8239 6.37837C18.0038 6.37837 18.1838 6.3097 18.3211 6.1724C18.5957 5.89786 18.5957 5.45264 18.3211 5.17805L17.8239 4.68084L18.8182 3.68648L20.0612 4.92947L19.1497 11.31L10.6976 19.7621C10.4763 19.9835 10.182 20.1053 9.86896 20.1053C9.55593 20.1053 9.26164 19.9834 9.0403 19.7621L1.74829 12.4701ZM22.5937 21.4221C22.5937 22.0683 22.068 22.594 21.4219 22.594H11.1094C10.4923 22.594 9.98549 22.1145 9.941 21.5086C10.577 21.491 11.2077 21.2408 11.6919 20.7565L20.3098 12.1386C20.4174 12.031 20.4872 11.8915 20.5087 11.7409L21.1262 7.41853L22.5937 9.37523V21.4221Z"
              fill="#94A3B8"/>
    </g>
    <defs>
        <clipPath id="clip0_1032_93715">
            <rect width="24" height="24" fill="white"/>
        </clipPath>
    </defs>
</svg>
